<?xml version="1.0" standalone="no"?>
<svg version="1.0" xmlns="http://www.w3.org/2000/svg"
 width="300.000000pt" height="227.000000pt" viewBox="0 0 300.000000 227.000000"
 preserveAspectRatio="xMidYMid meet">
<metadata>
Created by potrace 1.10, written by Peter Selinger 2001-2011
</metadata>
<g transform="translate(0.000000,227.000000) scale(0.100000,-0.100000)"
fill="#FFAAA5" stroke="none">
<path d="M1856 2084 c-4 -9 -4 -19 -1 -22 3 -3 5 0 5 6 0 16 27 15 34 0 3 -7
5 -4 3 7 -3 25 -32 32 -41 9z " fill="#FF435A"/>
<path d="M2004 1888 c-4 -6 -3 -8 4 -4 22 13 24 -17 3 -45 -12 -16 -17 -29
-12 -29 16 0 42 56 35 74 -7 19 -20 21 -30 4z" fill="#FF435A"/>
<path d="M1493 1850 c-22 -13 -35 -31 -42 -57 -13 -48 -10 -115 6 -120 8 -3
10 8 6 36 -4 28 -1 48 11 66 16 24 18 25 39 10 27 -19 38 -19 31 0 -4 9 17 1
52 -20 32 -19 64 -35 71 -35 16 0 17 50 2 84 -24 52 -118 72 -176 36z" fill="#FF435A"/>
<path d="M1480 1656 c0 -15 20 -44 35 -50 12 -4 13 -2 6 13 -11 20 -41 47 -41
37z" fill="#FF435A"/>
<path d="M2024 1638 c-19 -23 -19 -23 2 -5 25 21 37 12 22 -17 -10 -20 -9 -20
7 -4 17 16 15 48 -3 48 -5 0 -17 -10 -28 -22z" fill="#FF435A"/>
<path d="M1597 1598 c-10 -5 -27 -8 -38 -5 -13 3 -19 0 -19 -10 0 -12 8 -14
36 -10 41 7 48 11 43 26 -3 6 -10 6 -22 -1z" fill="#FF435A" />
<path d="M1452 1530 c-34 -15 -46 -29 -62 -66 -11 -25 -23 -57 -26 -70 l-6
-23 57 23 c89 36 92 33 100 -95 l7 -109 77 1 c72 2 73 2 24 8 -53 7 -65 13
-69 34 -10 55 -13 79 -19 124 -9 66 -39 98 -85 88 -30 -7 -31 -6 -21 14 19 35
49 45 92 31 32 -11 49 -10 108 4 98 24 116 13 171 -107 55 -121 95 -239 87
-260 -6 -15 -25 -17 -167 -17 -94 0 -170 -4 -181 -11 -11 -5 -28 -7 -39 -4
-16 5 -17 10 -8 30 14 32 29 37 123 45 l80 6 -98 5 c-86 3 -180 -7 -152 -17 6
-2 9 -22 7 -44 l-4 -40 231 0 c283 0 270 -9 216 148 -20 59 -57 150 -83 202
-42 85 -51 96 -85 109 -35 13 -44 12 -103 -9 -53 -18 -70 -20 -90 -12 -13 7
-24 16 -24 22 0 14 -9 12 -58 -10z" fill="#FF435A"/>
<path d="M1810 1499 c27 -11 234 -14 250 -4 6 4 10 -57 10 -169 l0 -176 27 0
27 0 -21 19 c-18 17 -20 32 -22 157 -2 131 0 140 19 152 15 9 26 10 40 2 24
-13 22 3 24 -160 2 -126 1 -136 -18 -152 -21 -17 -21 -18 9 -18 22 -1 38 -12
60 -37 29 -35 29 -38 28 -145 0 -60 -3 -112 -7 -115 -10 -10 -90 -22 -149 -23
-50 0 -60 -3 -64 -19 -3 -12 -15 -21 -32 -23 -18 -2 -27 -10 -29 -25 -2 -13 2
-23 8 -23 7 0 10 8 7 20 -5 19 0 20 83 20 101 0 120 -5 120 -31 0 -16 -10 -19
-97 -21 l-98 -3 0 -30 0 -30 102 -5 c106 -5 119 -9 110 -34 -5 -11 -30 -15
-117 -18 -104 -3 -110 -2 -108 16 2 11 -2 21 -8 23 -6 2 -9 -9 -8 -27 l2 -30
-56 0 c-30 0 -53 -2 -51 -5 9 -9 314 -14 349 -5 20 4 26 9 15 9 -20 2 -20 2
-1 16 14 10 15 15 6 15 -10 0 -11 3 -3 11 16 16 88 7 88 -11 1 -17 26 -15 37
3 4 6 2 19 -3 29 -8 15 -26 18 -117 20 -99 3 -107 4 -107 23 0 19 8 20 106 23
l106 3 -5 25 c-3 15 0 29 6 33 5 3 -31 6 -81 6 -85 0 -92 2 -92 20 0 18 7 19
95 18 52 0 78 1 58 4 l-38 4 0 119 c0 135 -8 164 -50 188 l-30 17 0 178 0 177
-202 -1 c-148 0 -196 -3 -178 -10z" fill="#FF435A"/>
<path d="M1220 1392 c0 -11 5 -57 11 -103 11 -84 24 -109 58 -109 11 0 10 5
-6 23 -11 12 -21 29 -21 37 -1 8 -3 43 -4 76 -3 47 -1 61 9 57 7 -3 11 -8 9
-12 -2 -3 9 -6 25 -7 41 -2 36 9 -16 34 -55 27 -65 27 -65 4z" fill="#FF435A"/>
<path d="M1347 1293 c7 -97 11 -100 12 -10 1 42 -3 77 -8 77 -5 0 -7 -30 -4
-67z" fill="#FF435A"/>
<path d="M1350 1183 c0 -20 5 -23 35 -23 19 0 35 5 35 10 0 6 -10 8 -24 4 -17
-4 -27 0 -35 13 -10 17 -10 16 -11 -4z" fill="#FF435A"/>
<path d="M1291 1122 c-7 -26 -16 -64 -22 -84 l-10 -38 -57 0 c-89 0 -214 -17
-259 -35 -25 -10 -45 -26 -53 -43 -27 -59 -22 -269 11 -503 10 -67 14 -78 37
-88 38 -18 149 -26 165 -13 7 7 22 45 32 87 l19 75 131 0 131 0 34 -141 c30
-124 48 -164 65 -147 2 2 -13 68 -34 146 l-38 142 139 0 c128 0 139 -1 134
-17 -9 -30 -66 -261 -66 -267 0 -14 29 -4 34 12 2 9 19 74 37 145 l32 127 78
0 c81 0 105 12 47 24 -18 3 -185 6 -371 6 l-339 0 6 28 c4 15 21 67 38 115 41
118 48 122 200 121 64 0 120 -3 123 -6 10 -10 -29 -67 -55 -79 -14 -6 -72 -13
-129 -15 -57 -2 -106 -6 -109 -9 -3 -3 48 -5 114 -5 184 0 194 14 194 255 l0
155 -55 0 c-41 0 -55 4 -55 14 0 10 -14 16 -42 18 -32 2 -45 8 -52 24 -5 12
-17 26 -27 32 -15 9 -18 5 -28 -36z m164 -67 c56 -4 55 -4 55 -15 0 -5 -8 -10
-17 -11 -13 0 -12 -4 7 -12 25 -12 25 -13 20 -112 l-5 -100 -117 -6 c-84 -4
-123 -10 -142 -22 -31 -21 -79 -118 -102 -207 -9 -36 -25 -84 -35 -107 -11
-24 -19 -48 -19 -53 0 -6 -7 -24 -15 -40 -13 -26 -21 -30 -55 -30 -29 0 -40 4
-40 15 0 8 -6 12 -13 9 -8 -3 -19 1 -25 9 -15 18 -31 137 -35 252 -1 50 -5 92
-9 95 -3 3 -3 44 1 92 4 61 12 92 24 106 19 20 97 41 182 47 80 5 138 17 160
31 11 8 31 15 45 15 17 1 19 3 8 6 -21 5 -25 59 -6 65 7 3 30 -2 52 -10 23 -7
59 -15 81 -17z" fill="#FF435A"/>
<path d="M1035 816 c-22 -22 -25 -34 -24 -80 3 -82 19 -93 19 -14 0 56 4 71
22 88 12 11 19 23 15 26 -3 3 -17 -6 -32 -20z" fill="#FF435A"/>
<path d="M1060 771 c0 -11 -3 -28 -7 -38 -6 -16 -5 -16 10 -4 18 14 23 61 7
61 -5 0 -10 -9 -10 -19z" fill="#FF435A"/>
<path d="M882 1125 c-19 -24 -22 -39 -21 -119 2 -101 -1 -107 27 63 6 40 11
46 44 57 48 16 69 2 79 -57 l7 -44 -1 45 -2 45 117 0 c80 0 121 4 129 13 10
10 -3 12 -67 12 -45 0 -128 3 -186 6 l-104 7 -22 -28z" fill="#FF435A"/>
<path d="M1703 900 c0 -47 2 -66 4 -42 2 23 2 61 0 85 -2 23 -4 4 -4 -43z" fill="#FF435A"/>
<path d="M210 816 c0 -3 16 -31 35 -63 32 -55 85 -106 85 -84 0 6 -12 18 -26
28 -33 22 -72 103 -41 88 6 -4 1 3 -13 14 -24 20 -40 26 -40 17z" fill="#FF435A"/>
<path d="M1701 765 c0 -17 -5 -46 -11 -64 -5 -19 -8 -37 -5 -39 8 -8 26 80 22
106 -4 26 -4 26 -6 -3z" fill="#FF435A"/>
<path d="M379 600 l-26 -29 29 -36 c16 -19 37 -35 46 -34 14 0 14 2 2 6 -45
18 -60 69 -30 101 11 12 17 22 13 22 -4 -1 -20 -14 -34 -30z" fill="#FF435A"/>
<path d="M2405 600 c-60 -4 -123 -9 -140 -10 -46 -4 76 -18 173 -19 76 -1 82
1 82 19 0 11 -1 19 -2 18 -2 -1 -52 -5 -113 -8z" fill="#FF435A"/>
<path d="M2466 535 c-5 -21 -11 -25 -28 -19 -31 10 -108 6 -122 -5 -9 -7 -16
-7 -25 2 -15 15 -204 13 -209 -3 -2 -5 -34 -10 -74 -10 -56 0 -74 -4 -84 -17
-16 -22 -20 -293 -4 -293 6 0 10 55 10 146 l0 145 27 -3 c26 -3 28 -8 62 -145
28 -118 37 -143 52 -143 16 0 17 4 8 30 -8 22 -7 243 0 278 1 1 48 2 106 2
l105 0 0 -155 c0 -131 2 -155 15 -155 13 0 15 24 15 155 l0 155 55 0 55 0 0
-155 c0 -131 2 -155 15 -155 13 0 15 24 15 155 0 150 1 155 21 155 16 0 20 5
17 27 -4 35 -24 40 -32 8z m-416 -102 c0 -27 2 -70 4 -98 2 -27 2 -39 -1 -25
-6 33 -32 135 -39 155 -4 10 0 15 15 15 18 0 21 -6 21 -47z" fill="#FF435A"/>
<path d="M250 411 c0 -13 107 -109 142 -127 28 -14 32 -14 47 1 15 16 14 17
-6 11 -27 -8 -52 4 -104 51 -42 38 -49 59 -21 66 9 3 0 5 -20 6 -21 0 -38 -3
-38 -8z" fill="#FF435A"/>
<path d="M467 266 c-9 -23 -13 -21 52 -40 59 -17 101 -21 101 -8 0 4 -17 7
-37 7 -48 0 -101 22 -105 43 -3 15 -5 14 -11 -2z" fill="#FF435A"/>
<path d="M906 265 c-2 -6 -16 -11 -31 -13 -35 -3 -55 -19 -55 -43 0 -18 10
-19 146 -19 l147 0 -7 31 c-3 17 -6 35 -6 40 0 13 -78 11 -86 -3 -5 -7 -3 -8
6 -3 10 6 12 4 6 -11 -6 -15 -5 -17 5 -6 20 19 50 15 47 -5 -4 -27 -13 -30
-81 -27 -34 2 -66 3 -70 4 -5 0 -5 5 -2 10 4 6 1 17 -5 25 -8 9 -8 15 -2 15 6
0 12 -6 15 -12 4 -10 7 -10 18 0 7 6 22 12 33 12 10 0 16 3 13 6 -11 11 -87
10 -91 -1z" fill="#FF435A"/>
<path d="M278 184 c-5 -4 -8 -11 -8 -16 0 -4 127 -8 283 -8 174 0 276 4 266
10 -19 11 -531 25 -541 14z" fill="#FF435A"/>
<path d="M1120 175 c-22 -13 -3 -14 180 -14 188 0 202 1 171 14 -47 21 -315
21 -351 0z" fill="#FF435A"/>
<path d="M1530 175 c-23 -13 -19 -14 55 -15 77 0 79 1 51 15 -35 19 -73 19
-106 0z" fill="#FF435A"/>
<path d="M1695 175 c-26 -12 47 -14 528 -15 500 0 557 2 557 16 0 14 -19 15
-157 10 -87 -3 -168 -5 -180 -5 -33 0 -108 0 -140 -1 -16 0 -63 3 -107 6 -50
4 -82 2 -89 -5 -14 -14 -50 -14 -81 0 -19 9 -36 9 -71 -1 -35 -10 -49 -10 -58
-1 -16 16 -165 13 -202 -4z" fill="#FF435A"/>
</g>
</svg>
